<svg width="970" height="383" viewBox="0 0 970 383" fill="none" xmlns="http://www.w3.org/2000/svg">
<path fill-rule="evenodd" clip-rule="evenodd" d="M839.033 317.431C839.033 302.713 835.158 288.253 827.799 275.507C820.44 262.76 809.854 252.175 797.108 244.815C784.361 237.456 769.901 233.581 755.183 233.581C740.464 233.581 726.005 237.456 713.258 244.815C700.511 252.175 689.926 262.76 682.566 275.507C675.207 288.253 671.333 302.713 671.333 317.431H326.615C326.615 302.713 322.741 288.253 315.382 275.507C308.022 262.76 297.437 252.175 284.69 244.815C271.944 237.456 257.484 233.581 242.765 233.581C228.047 233.581 213.587 237.456 200.84 244.815C188.094 252.175 177.508 262.76 170.149 275.507C162.79 288.253 158.915 302.713 158.915 317.431H37.7979C27.9142 317.431 18.4353 313.505 11.4464 306.516C4.45755 299.527 0.53125 290.049 0.53125 280.165V176.194C0.53125 171 1.25516 165.831 2.68207 160.837L40.7232 27.6928C42.948 19.9059 47.6488 13.0558 54.1142 8.17892C60.5795 3.30209 68.4576 0.664062 76.556 0.664062H922.883C925.354 0.664063 927.724 1.64563 929.471 3.39284C931.218 5.14006 932.2 7.5098 932.2 9.98073V28.6141C932.2 30.758 931.461 32.8364 930.106 34.4986C928.752 36.1608 926.866 37.305 924.767 37.7384C923.461 38.0078 922.229 38.5543 921.153 39.3407C920.077 40.1272 919.182 41.1355 918.529 42.2974C917.876 43.4593 917.48 44.7479 917.367 46.076C917.254 47.4042 917.428 48.7411 917.876 49.9963L966.21 185.333C968.365 191.367 969.467 197.727 969.467 204.134V298.798C969.467 303.74 967.504 308.48 964.009 311.974C960.515 315.468 955.775 317.431 950.833 317.431H839.033ZM921.686 168.365H810.152C806.445 168.365 802.891 166.892 800.27 164.272C797.649 161.651 796.177 158.096 796.177 154.39V51.9057C796.177 48.1993 797.649 44.6447 800.27 42.0239C802.891 39.4031 806.445 37.9307 810.152 37.9307H885.085C887.967 37.9307 890.779 38.822 893.135 40.4824C895.491 42.1427 897.276 44.491 898.245 47.2054L934.847 149.69C935.6 151.799 935.835 154.058 935.533 156.277C935.23 158.496 934.399 160.61 933.109 162.44C931.819 164.271 930.108 165.764 928.12 166.796C926.132 167.827 923.925 168.365 921.686 168.365ZM757.978 168.365H660.047C657.884 168.365 655.75 167.863 653.814 166.898C651.878 165.933 650.193 164.532 648.89 162.806C647.587 161.079 646.703 159.073 646.308 156.946C645.912 154.82 646.015 152.63 646.61 150.551L675.89 48.0665C676.724 45.1464 678.487 42.5776 680.912 40.7488C683.336 38.92 686.29 37.9307 689.327 37.9307H757.978C761.685 37.9307 765.239 39.4031 767.86 42.0239C770.481 44.6447 771.953 48.1993 771.953 51.9057V154.39C771.953 158.096 770.481 161.651 767.86 164.272C765.239 166.892 761.685 168.365 757.978 168.365ZM606.755 168.365H512.843C510.68 168.365 508.546 167.863 506.61 166.898C504.674 165.933 502.988 164.532 501.686 162.806C500.383 161.079 499.499 159.073 499.104 156.946C498.708 154.82 498.811 152.63 499.405 150.551L528.687 48.0665C529.521 45.1464 531.284 42.5776 533.708 40.7488C536.133 38.92 539.087 37.9307 542.124 37.9307H636.036C638.199 37.9307 640.333 38.4328 642.269 39.3975C644.205 40.3622 645.89 41.7632 647.193 43.4901C648.495 45.2169 649.379 47.2226 649.775 49.3492C650.171 51.4757 650.067 53.6651 649.473 55.745L620.192 158.229C619.358 161.149 617.595 163.718 615.17 165.547C612.746 167.376 609.792 168.365 606.755 168.365ZM459.551 168.365H365.639C363.476 168.365 361.343 167.863 359.407 166.898C357.471 165.933 355.785 164.532 354.483 162.806C353.18 161.079 352.296 159.073 351.9 156.946C351.505 154.82 351.608 152.63 352.202 150.551L381.483 48.0665C382.317 45.1464 384.08 42.5776 386.504 40.7488C388.929 38.92 391.883 37.9307 394.92 37.9307H488.832C490.995 37.9307 493.128 38.4328 495.064 39.3975C497.001 40.3622 498.686 41.7632 499.989 43.4901C501.291 45.2169 502.175 47.2226 502.571 49.3492C502.967 51.4757 502.863 53.6651 502.269 55.745L472.989 158.229C472.154 161.149 470.392 163.718 467.967 165.547C465.543 167.376 462.588 168.365 459.551 168.365ZM312.347 168.365H218.435C216.272 168.365 214.139 167.863 212.203 166.898C210.267 165.933 208.581 164.532 207.279 162.806C205.976 161.079 205.092 159.073 204.696 156.946C204.301 154.82 204.404 152.63 204.998 150.551L234.279 48.0665C235.114 45.1464 236.876 42.5776 239.301 40.7488C241.725 38.92 244.68 37.9307 247.717 37.9307H341.629C343.792 37.9307 345.925 38.4328 347.861 39.3975C349.797 40.3622 351.483 41.7632 352.785 43.4901C354.088 45.2169 354.972 47.2226 355.368 49.3492C355.763 51.4757 355.66 53.6651 355.066 55.745L325.785 158.229C324.95 161.149 323.188 163.718 320.763 165.547C318.339 167.376 315.384 168.365 312.347 168.365ZM165.143 168.365H71.2321C69.069 168.365 66.9355 167.863 64.9994 166.898C63.0634 165.933 61.3777 164.532 60.0752 162.806C58.7726 161.079 57.8886 159.073 57.4929 156.946C57.0972 154.82 57.2005 152.63 57.7948 150.551L87.0752 48.0665C87.9095 45.1464 89.6723 42.5776 92.0968 40.7488C94.5213 38.92 97.4756 37.9307 100.512 37.9307H194.424C196.588 37.9307 198.721 38.4328 200.657 39.3975C202.593 40.3622 204.279 41.7632 205.581 43.4901C206.884 45.2169 207.768 47.2226 208.164 49.3492C208.559 51.4757 208.456 53.6651 207.862 55.745L178.581 158.229C177.746 161.149 175.984 163.718 173.559 165.547C171.134 167.376 168.18 168.365 165.143 168.365ZM177.549 317.431C177.549 305.984 180.562 294.737 186.286 284.823C192.01 274.909 200.243 266.676 210.157 260.952C220.071 255.228 231.317 252.215 242.765 252.215C254.213 252.215 265.459 255.228 275.374 260.952C285.288 266.676 293.521 274.909 299.245 284.823C304.969 294.737 307.982 305.984 307.982 317.431C307.982 328.879 304.969 340.126 299.245 350.04C293.521 359.954 285.288 368.187 275.374 373.911C265.459 379.635 254.213 382.648 242.765 382.648C231.317 382.648 220.071 379.635 210.157 373.911C200.243 368.187 192.01 359.954 186.286 350.04C180.562 340.126 177.549 328.879 177.549 317.431ZM689.966 317.431C689.966 305.984 692.979 294.737 698.703 284.823C704.427 274.909 712.66 266.676 722.574 260.952C732.489 255.228 743.735 252.215 755.183 252.215C766.631 252.215 777.877 255.228 787.791 260.952C797.705 266.676 805.938 274.909 811.662 284.823C817.386 294.737 820.399 305.984 820.399 317.431C820.399 328.879 817.386 340.126 811.662 350.04C805.938 359.954 797.705 368.187 787.791 373.911C777.877 379.635 766.631 382.648 755.183 382.648C743.735 382.648 732.489 379.635 722.574 373.911C712.66 368.187 704.427 359.954 698.703 350.04C692.979 340.126 689.966 328.879 689.966 317.431Z" fill="white"/>
</svg>
