<svg width="654" height="654" viewBox="0 0 654 654" fill="none" xmlns="http://www.w3.org/2000/svg">
<path fill-rule="evenodd" clip-rule="evenodd" d="M23.3392 0.00678629C17.1517 0.00678629 11.2141 2.46519 6.83919 6.84012C2.46426 11.2151 0.00585898 17.1527 0.00585898 23.3401V209.967C-0.134768 216.243 2.26105 222.316 6.65692 226.805C11.0476 231.295 17.058 233.821 23.3396 233.821C29.6208 233.821 35.6313 231.295 40.0223 226.805C44.4129 222.316 46.814 216.243 46.6733 209.967V46.6734H210.047C216.323 46.8141 222.39 44.4183 226.88 40.0276C231.37 35.6369 233.901 29.6213 233.901 23.3396C233.901 17.0584 231.37 11.0479 226.88 6.65692C222.39 2.26625 216.323 -0.134816 210.047 0.00585042L23.3392 0.00678629ZM443.353 0.00678629C437.077 -0.13384 431.004 2.26718 426.519 6.65785C422.03 11.0485 419.498 17.0589 419.498 23.3405C419.498 29.6217 422.03 35.6375 426.519 40.0285C431.004 44.4192 437.077 46.8149 443.353 46.6744H606.699V209.968C606.345 216.374 608.637 222.645 613.043 227.306C617.454 231.968 623.585 234.609 630.002 234.609C636.413 234.609 642.549 231.968 646.955 227.306C651.361 222.645 653.658 216.374 653.299 209.968V23.341C653.299 17.1692 650.851 11.2473 646.497 6.87172C642.142 2.50198 636.231 0.033183 630.059 0.00718302L443.353 0.00678629ZM22.9925 419.7C16.8051 419.794 10.9092 422.336 6.59653 426.778C2.28399 431.216 -0.0857363 437.19 0.00279705 443.377V630.004C0.00279705 636.191 2.4612 642.123 6.83613 646.504C11.2111 650.879 17.1487 653.337 23.3361 653.337H210.043C216.319 653.472 222.381 651.077 226.871 646.686C231.355 642.295 233.886 636.28 233.886 630.003C233.886 623.722 231.355 617.711 226.871 613.321C222.381 608.93 216.319 606.529 210.043 606.669H46.6695V443.376C46.7632 437.069 44.2945 430.991 39.8361 426.532C35.3777 422.074 29.2997 419.605 22.9921 419.699L22.9925 419.7ZM629.619 419.7H629.624C623.447 419.81 617.562 422.362 613.264 426.799C608.967 431.237 606.608 437.2 606.697 443.378V606.671H443.35C437.074 606.53 431.006 608.931 426.522 613.322C422.032 617.713 419.506 623.723 419.506 630.005C419.506 636.281 422.032 642.297 426.522 646.688C431.006 651.078 437.074 653.474 443.35 653.339H630.057C636.229 653.313 642.14 650.844 646.494 646.469C650.848 642.099 653.296 636.177 653.296 630.005V443.378C653.39 437.071 650.926 430.993 646.463 426.534C642.004 422.076 635.926 419.607 629.624 419.701L629.619 419.7Z" fill="black"/>
</svg>
