<svg width="338" height="110" viewBox="0 0 338 110" fill="none" xmlns="http://www.w3.org/2000/svg">
<path d="M327.733 27.2377C326.349 27.2377 325.424 27.6981 324.5 27.6981C316.193 6.92696 292.189 0.000477949 264.031 0.000477949C232.18 0.000477949 205.407 8.30765 200.793 36.4653L189.714 31.3875L171.252 30.927H151.864L138.48 36.9288C133.862 8.77123 107.552 0 75.2412 0C47.0836 0 22.6188 6.46223 14.7724 27.6976C13.3847 27.7009 12.4638 27.2372 11.0792 27.2372C5.07744 27.2372 0 32.315 0 38.3164V55.8581C0 61.8598 5.07777 66.9373 11.0792 66.9373C12.4638 66.9373 13.8483 66.4769 14.7724 66.0132C23.0796 91.402 47.0836 109.404 75.2412 109.404C109.861 109.404 138.48 81.7068 138.943 47.0868L152.328 40.6245H185.563L198.948 47.0868C199.872 81.7068 228.029 109.404 262.649 109.404C290.807 109.404 314.811 91.402 323.118 66.0132C324.503 66.4736 325.427 66.9373 326.811 66.9373C332.813 66.9373 337.89 61.8595 337.89 55.8581V38.3164C338.351 32.3147 333.734 27.2372 327.732 27.2372L327.733 27.2377Z" fill="black"/>
</svg>
