<svg width="197" height="63" viewBox="0 0 197 63" fill="none" xmlns="http://www.w3.org/2000/svg">
<path d="M0 5C0 2.23858 2.23858 0 5 0H191C193.761 0 196 2.23858 196 5V9C196 9.55228 195.552 10 195 10H2C0.89543 10 0 9.10457 0 8V5Z" fill="black"/>
<g filter="url(#filter0_bd_1395_101)">
<path d="M29 2H107V36.5C107 46.165 99.165 54 89.5 54H46.5C36.835 54 29 46.165 29 36.5V2Z" fill="black" fill-opacity="0.8" shape-rendering="crispEdges"/>
</g>
<g filter="url(#filter1_bd_1395_101)">
<path d="M115 3H193V37.5C193 47.165 185.165 55 175.5 55H132.5C122.835 55 115 47.165 115 37.5V3Z" fill="black" fill-opacity="0.8" shape-rendering="crispEdges"/>
</g>
<defs>
<filter id="filter0_bd_1395_101" x="25" y="-2" width="86" height="64" filterUnits="userSpaceOnUse" color-interpolation-filters="sRGB">
<feFlood flood-opacity="0" result="BackgroundImageFix"/>
<feGaussianBlur in="BackgroundImageFix" stdDeviation="2"/>
<feComposite in2="SourceAlpha" operator="in" result="effect1_backgroundBlur_1395_101"/>
<feColorMatrix in="SourceAlpha" type="matrix" values="0 0 0 0 0 0 0 0 0 0 0 0 0 0 0 0 0 0 127 0" result="hardAlpha"/>
<feOffset dy="4"/>
<feGaussianBlur stdDeviation="2"/>
<feComposite in2="hardAlpha" operator="out"/>
<feColorMatrix type="matrix" values="0 0 0 0 0 0 0 0 0 0 0 0 0 0 0 0 0 0 0.25 0"/>
<feBlend mode="normal" in2="effect1_backgroundBlur_1395_101" result="effect2_dropShadow_1395_101"/>
<feBlend mode="normal" in="SourceGraphic" in2="effect2_dropShadow_1395_101" result="shape"/>
</filter>
<filter id="filter1_bd_1395_101" x="111" y="-1" width="86" height="64" filterUnits="userSpaceOnUse" color-interpolation-filters="sRGB">
<feFlood flood-opacity="0" result="BackgroundImageFix"/>
<feGaussianBlur in="BackgroundImageFix" stdDeviation="2"/>
<feComposite in2="SourceAlpha" operator="in" result="effect1_backgroundBlur_1395_101"/>
<feColorMatrix in="SourceAlpha" type="matrix" values="0 0 0 0 0 0 0 0 0 0 0 0 0 0 0 0 0 0 127 0" result="hardAlpha"/>
<feOffset dy="4"/>
<feGaussianBlur stdDeviation="2"/>
<feComposite in2="hardAlpha" operator="out"/>
<feColorMatrix type="matrix" values="0 0 0 0 0 0 0 0 0 0 0 0 0 0 0 0 0 0 0.25 0"/>
<feBlend mode="normal" in2="effect1_backgroundBlur_1395_101" result="effect2_dropShadow_1395_101"/>
<feBlend mode="normal" in="SourceGraphic" in2="effect2_dropShadow_1395_101" result="shape"/>
</filter>
</defs>
</svg>
