<svg width="640" height="709" viewBox="0 0 640 709" fill="none" xmlns="http://www.w3.org/2000/svg">
<path d="M402.45 580.16H236.69C232.211 580.16 228.477 583.895 228.477 588.374V646.614C228.477 651.093 232.211 654.827 236.69 654.827H256.102C261.331 685.442 287.462 708.587 319.571 708.587C351.675 708.587 377.811 685.442 383.041 654.827H402.453C406.932 654.827 410.666 651.093 410.666 646.614V588.374C411.411 584.639 407.677 580.16 402.453 580.16H402.45Z" fill="white"/>
<path d="M319.571 96.3173C331.518 96.3173 341.221 86.6091 341.221 74.6667V21.6507C341.221 9.7028 331.513 0 319.571 0C307.623 0 297.92 9.70827 297.92 21.6507V74.6667C297.92 86.6145 307.623 96.3173 319.571 96.3173Z" fill="white"/>
<path d="M178.451 117.973C182.185 124.692 189.649 128.427 197.117 128.427C200.852 128.427 204.586 127.682 207.57 125.442C218.023 119.468 221.008 106.03 215.784 96.3221L188.904 50.0301C182.93 39.5771 169.492 36.5928 159.784 41.8165C149.331 47.7905 146.347 61.2285 151.57 70.9365L178.451 117.973Z" fill="white"/>
<path d="M117.97 178.454L71.678 151.574C61.2249 145.6 48.5327 149.334 42.558 159.787C36.584 170.24 40.3184 182.933 50.7716 188.907L97.0636 215.787C100.798 218.027 103.782 218.772 107.517 218.772C114.985 218.772 122.449 215.037 126.183 208.319C132.157 197.121 128.423 184.428 117.97 178.455L117.97 178.454Z" fill="white"/>
<path d="M531.624 218.774C535.359 218.774 539.093 218.03 542.077 215.79L588.369 188.91C598.822 182.936 601.806 169.498 596.583 159.79C590.609 149.337 577.171 146.353 567.463 151.576L521.171 178.456C510.718 184.43 507.733 197.868 512.957 207.576C517.436 214.295 524.16 218.774 531.624 218.774L531.624 218.774Z" fill="white"/>
<path d="M431.571 126.187C435.305 128.427 438.29 129.171 442.024 129.171C449.493 129.171 456.956 125.437 460.69 118.718L487.57 72.4263C493.544 61.9733 489.81 49.281 479.357 43.3063C468.904 37.3317 456.212 41.0667 450.237 51.5199L423.357 97.8119C417.383 106.77 421.117 120.213 431.57 126.187L431.571 126.187Z" fill="white"/>
<path d="M327.784 137.387C268.049 134.402 212.049 160.532 173.971 209.069C153.809 234.455 141.116 265.815 138.132 297.924C132.903 347.205 146.346 394.241 176.211 432.324C197.861 459.949 213.544 486.829 222.503 514.46L226.237 525.658C227.732 530.887 232.956 534.616 238.185 534.616H400.958C406.187 534.616 411.411 530.882 412.906 525.658L416.641 514.46C425.599 487.58 439.786 461.444 460.693 434.564C477.119 413.657 489.813 389.761 496.531 363.632C524.906 248.643 438.291 141.872 327.785 137.392L327.784 137.387Z" fill="white"/>
</svg>
