<svg width="710" height="617" viewBox="0 0 710 617" fill="none" xmlns="http://www.w3.org/2000/svg">
<path d="M45.762 254.615L0.95937 104.535C-2.77503 91.0973 4.69378 76.9093 18.1314 73.1747C31.5687 69.4403 45.7567 76.9091 49.4914 90.3467L75.6274 177.707C124.163 72.4253 230.934 0 354.134 0C486.295 0 599.041 83.6253 643.094 200.107C649.068 216.533 637.12 234.456 619.949 234.456C609.496 234.456 599.787 227.737 596.053 218.029C559.469 120.217 464.641 50.0293 354.133 50.0293C248.106 50.0293 156.266 114.243 116.693 206.829L212.266 177.709C225.703 173.975 239.891 181.444 243.626 194.881C247.36 208.319 239.892 222.507 226.454 226.241L76.374 271.044C63.6762 274.778 49.4887 267.31 45.754 254.617L45.762 254.615Z" fill="black"/>
<path d="M659.521 527.147L633.385 439.787C584.103 544.318 477.331 616.748 354.131 616.748C221.97 616.748 109.225 533.122 65.1715 416.641C59.1975 400.214 71.1455 382.291 88.3168 382.291C98.7699 382.291 108.478 389.01 112.213 398.718C148.801 496.535 243.629 566.718 354.133 566.718C460.159 566.718 551.999 502.505 591.573 409.918L495.999 439.038C482.562 442.773 468.374 435.304 464.639 421.866C460.905 408.429 468.374 394.241 481.811 390.506L631.891 345.704C645.329 341.969 659.517 349.438 663.252 362.876L708.054 512.956C711.789 526.393 704.32 540.581 690.882 544.315C677.445 548.055 663.257 540.586 659.522 527.143L659.521 527.147Z" fill="black"/>
</svg>
